# This file uses centimeters as units for non-parametric coordinates.

mtllib tetraedr.mtl
g default
v -0.500000 -0.666667 -0.866026
v -0.500000 -0.666667 0.866025
v 1.000000 -0.666667 0.000000
v 0.000000 0.666667 0.000000
vt 0.375000 0.033494
vt 0.375000 0.466506
vt 0.750000 0.250000
vt 0.250000 0.500000
vt 0.416667 0.500000
vt 0.583333 0.500000
vt 0.750000 0.500000
vt 0.500000 1.000000
vn 0.000000 -1.000000 0.000000
vn 0.000000 -1.000000 0.000000
vn 0.000000 -1.000000 0.000000
vn -0.936329 0.351123 -0.000000
vn -0.936329 0.351123 -0.000000
vn -0.936329 0.351123 -0.000000
vn 0.468165 0.351123 0.810885
vn 0.468165 0.351123 0.810885
vn 0.468165 0.351123 0.810885
vn 0.468165 0.351124 -0.810885
vn 0.468165 0.351124 -0.810885
vn 0.468165 0.351123 -0.810885
s off
g pCone1
usemtl initialShadingGroup
f 1/1/1 3/3/2 2/2/3
f 1/4/4 2/5/5 4/8/6
f 2/5/7 3/6/8 4/8/9
f 3/6/10 1/7/11 4/8/12
g default
v -0.500000 -0.666667 -0.866026
v -0.500000 -0.666667 0.866025
v 1.000000 -0.666667 0.000000
v 0.000000 0.666667 0.000000
vt 0.375000 0.033494
vt 0.375000 0.466506
vt 0.750000 0.250000
vt 0.250000 0.500000
vt 0.416667 0.500000
vt 0.583333 0.500000
vt 0.750000 0.500000
vt 0.500000 1.000000
vn 0.000000 -1.000000 0.000000
vn 0.000000 -1.000000 0.000000
vn 0.000000 -1.000000 0.000000
vn -0.936329 0.351123 -0.000000
vn -0.936329 0.351123 -0.000000
vn -0.936329 0.351123 -0.000000
vn 0.468165 0.351123 0.810885
vn 0.468165 0.351123 0.810885
vn 0.468165 0.351123 0.810885
vn 0.468165 0.351124 -0.810885
vn 0.468165 0.351124 -0.810885
vn 0.468165 0.351123 -0.810885
s off
g pCone1
f 5/9/13 7/11/14 6/10/15
f 5/12/16 6/13/17 8/16/18
f 6/13/19 7/14/20 8/16/21
f 7/14/22 5/15/23 8/16/24
